<mxfile host="app.diagrams.net" modified="2022-08-28T09:49:22.401Z" agent="5.0 (X11; Linux x86_64) AppleWebKit/537.36 (KHTML, like Gecko) Chrome/104.0.0.0 Safari/537.36" etag="41JajmY5TOH8oTh79gE4" version="20.2.7" type="github">
  <diagram id="fpYK_ddoPWq5EkgBPVJv" name="페이지-1">
    <mxGraphModel dx="980" dy="557" grid="1" gridSize="10" guides="1" tooltips="1" connect="1" arrows="1" fold="1" page="1" pageScale="1" pageWidth="827" pageHeight="1169" math="0" shadow="0">
      <root>
        <mxCell id="0" />
        <mxCell id="1" parent="0" />
        <mxCell id="V83MvPd_cZtmSTplSo7J-30" style="edgeStyle=orthogonalEdgeStyle;rounded=0;orthogonalLoop=1;jettySize=auto;html=1;entryX=0;entryY=0.5;entryDx=0;entryDy=0;" edge="1" parent="1" source="V83MvPd_cZtmSTplSo7J-1" target="V83MvPd_cZtmSTplSo7J-5">
          <mxGeometry relative="1" as="geometry">
            <mxPoint x="240" y="140" as="targetPoint" />
          </mxGeometry>
        </mxCell>
        <mxCell id="V83MvPd_cZtmSTplSo7J-37" style="edgeStyle=orthogonalEdgeStyle;rounded=0;orthogonalLoop=1;jettySize=auto;html=1;exitX=0.5;exitY=0.5;exitDx=0;exitDy=0;exitPerimeter=0;entryX=0;entryY=0.5;entryDx=0;entryDy=0;" edge="1" parent="1" source="V83MvPd_cZtmSTplSo7J-1" target="V83MvPd_cZtmSTplSo7J-6">
          <mxGeometry relative="1" as="geometry" />
        </mxCell>
        <mxCell id="V83MvPd_cZtmSTplSo7J-39" style="edgeStyle=orthogonalEdgeStyle;rounded=0;orthogonalLoop=1;jettySize=auto;html=1;exitX=0.5;exitY=0.5;exitDx=0;exitDy=0;exitPerimeter=0;entryX=0;entryY=0.5;entryDx=0;entryDy=0;" edge="1" parent="1" source="V83MvPd_cZtmSTplSo7J-1" target="V83MvPd_cZtmSTplSo7J-7">
          <mxGeometry relative="1" as="geometry" />
        </mxCell>
        <mxCell id="V83MvPd_cZtmSTplSo7J-41" style="edgeStyle=orthogonalEdgeStyle;rounded=0;orthogonalLoop=1;jettySize=auto;html=1;exitX=0.5;exitY=0.5;exitDx=0;exitDy=0;exitPerimeter=0;entryX=0;entryY=0.5;entryDx=0;entryDy=0;" edge="1" parent="1" source="V83MvPd_cZtmSTplSo7J-1" target="V83MvPd_cZtmSTplSo7J-8">
          <mxGeometry relative="1" as="geometry" />
        </mxCell>
        <mxCell id="V83MvPd_cZtmSTplSo7J-1" value="이용자" style="shape=umlActor;verticalLabelPosition=bottom;verticalAlign=top;html=1;outlineConnect=0;" vertex="1" parent="1">
          <mxGeometry x="70" y="110" width="30" height="60" as="geometry" />
        </mxCell>
        <mxCell id="V83MvPd_cZtmSTplSo7J-4" value="게시판 서비스" style="swimlane;" vertex="1" parent="1">
          <mxGeometry x="170" y="60" width="600" height="530" as="geometry" />
        </mxCell>
        <mxCell id="V83MvPd_cZtmSTplSo7J-5" value="회원 가입" style="rounded=1;whiteSpace=wrap;html=1;" vertex="1" parent="V83MvPd_cZtmSTplSo7J-4">
          <mxGeometry x="10" y="180" width="120" height="60" as="geometry" />
        </mxCell>
        <mxCell id="V83MvPd_cZtmSTplSo7J-44" style="edgeStyle=orthogonalEdgeStyle;rounded=0;orthogonalLoop=1;jettySize=auto;html=1;exitX=1;exitY=0.5;exitDx=0;exitDy=0;" edge="1" parent="V83MvPd_cZtmSTplSo7J-4" source="V83MvPd_cZtmSTplSo7J-6" target="V83MvPd_cZtmSTplSo7J-8">
          <mxGeometry relative="1" as="geometry" />
        </mxCell>
        <mxCell id="V83MvPd_cZtmSTplSo7J-6" value="게시판 보기" style="rounded=1;whiteSpace=wrap;html=1;" vertex="1" parent="V83MvPd_cZtmSTplSo7J-4">
          <mxGeometry x="10" y="290" width="120" height="60" as="geometry" />
        </mxCell>
        <mxCell id="V83MvPd_cZtmSTplSo7J-7" value="게시글 보기" style="rounded=1;whiteSpace=wrap;html=1;" vertex="1" parent="V83MvPd_cZtmSTplSo7J-4">
          <mxGeometry x="10" y="420" width="120" height="60" as="geometry" />
        </mxCell>
        <mxCell id="V83MvPd_cZtmSTplSo7J-46" style="edgeStyle=orthogonalEdgeStyle;rounded=0;orthogonalLoop=1;jettySize=auto;html=1;exitX=1;exitY=0.5;exitDx=0;exitDy=0;entryX=0;entryY=0.5;entryDx=0;entryDy=0;" edge="1" parent="V83MvPd_cZtmSTplSo7J-4" source="V83MvPd_cZtmSTplSo7J-8" target="V83MvPd_cZtmSTplSo7J-9">
          <mxGeometry relative="1" as="geometry" />
        </mxCell>
        <mxCell id="V83MvPd_cZtmSTplSo7J-8" value="회원 로그인" style="rounded=1;whiteSpace=wrap;html=1;" vertex="1" parent="V83MvPd_cZtmSTplSo7J-4">
          <mxGeometry x="110" y="50" width="120" height="60" as="geometry" />
        </mxCell>
        <mxCell id="V83MvPd_cZtmSTplSo7J-9" value="인증" style="rounded=1;whiteSpace=wrap;html=1;" vertex="1" parent="V83MvPd_cZtmSTplSo7J-4">
          <mxGeometry x="390" y="50" width="120" height="60" as="geometry" />
        </mxCell>
        <mxCell id="V83MvPd_cZtmSTplSo7J-16" value="로그인 실패" style="rounded=1;whiteSpace=wrap;html=1;" vertex="1" parent="V83MvPd_cZtmSTplSo7J-4">
          <mxGeometry x="390" y="120" width="120" height="60" as="geometry" />
        </mxCell>
        <mxCell id="V83MvPd_cZtmSTplSo7J-17" value="게시판 정렬" style="rounded=1;whiteSpace=wrap;html=1;" vertex="1" parent="V83MvPd_cZtmSTplSo7J-4">
          <mxGeometry x="210" y="170" width="120" height="60" as="geometry" />
        </mxCell>
        <mxCell id="V83MvPd_cZtmSTplSo7J-26" value="게시판 검색" style="rounded=1;whiteSpace=wrap;html=1;" vertex="1" parent="V83MvPd_cZtmSTplSo7J-4">
          <mxGeometry x="210" y="260" width="120" height="60" as="geometry" />
        </mxCell>
        <mxCell id="V83MvPd_cZtmSTplSo7J-27" value="게시글 쓰기, 수정, 삭제" style="rounded=1;whiteSpace=wrap;html=1;" vertex="1" parent="V83MvPd_cZtmSTplSo7J-4">
          <mxGeometry x="210" y="340" width="130" height="60" as="geometry" />
        </mxCell>
        <mxCell id="V83MvPd_cZtmSTplSo7J-28" value="댓글 보기, 쓰기, 수정, &lt;br&gt;삭제" style="rounded=1;whiteSpace=wrap;html=1;" vertex="1" parent="V83MvPd_cZtmSTplSo7J-4">
          <mxGeometry x="210" y="420" width="130" height="60" as="geometry" />
        </mxCell>
        <mxCell id="V83MvPd_cZtmSTplSo7J-47" style="edgeStyle=orthogonalEdgeStyle;rounded=0;orthogonalLoop=1;jettySize=auto;html=1;exitX=0;exitY=0.5;exitDx=0;exitDy=0;entryX=1;entryY=0.5;entryDx=0;entryDy=0;" edge="1" parent="V83MvPd_cZtmSTplSo7J-4" source="V83MvPd_cZtmSTplSo7J-16" target="V83MvPd_cZtmSTplSo7J-8">
          <mxGeometry relative="1" as="geometry">
            <mxPoint x="270" y="80" as="targetPoint" />
            <Array as="points">
              <mxPoint x="330" y="150" />
              <mxPoint x="330" y="80" />
            </Array>
          </mxGeometry>
        </mxCell>
        <mxCell id="V83MvPd_cZtmSTplSo7J-45" style="edgeStyle=orthogonalEdgeStyle;rounded=0;orthogonalLoop=1;jettySize=auto;html=1;exitX=1;exitY=0.5;exitDx=0;exitDy=0;" edge="1" parent="1" source="V83MvPd_cZtmSTplSo7J-7">
          <mxGeometry relative="1" as="geometry">
            <mxPoint x="340" y="170" as="targetPoint" />
            <Array as="points">
              <mxPoint x="340" y="510" />
              <mxPoint x="340" y="170" />
            </Array>
          </mxGeometry>
        </mxCell>
        <mxCell id="V83MvPd_cZtmSTplSo7J-48" value="" style="rounded=1;whiteSpace=wrap;html=1;" vertex="1" parent="1">
          <mxGeometry x="800" y="110" width="120" height="60" as="geometry" />
        </mxCell>
        <mxCell id="V83MvPd_cZtmSTplSo7J-49" style="edgeStyle=orthogonalEdgeStyle;rounded=0;orthogonalLoop=1;jettySize=auto;html=1;exitX=1;exitY=0.5;exitDx=0;exitDy=0;entryX=0;entryY=0.5;entryDx=0;entryDy=0;" edge="1" parent="1" source="V83MvPd_cZtmSTplSo7J-9" target="V83MvPd_cZtmSTplSo7J-48">
          <mxGeometry relative="1" as="geometry" />
        </mxCell>
        <mxCell id="V83MvPd_cZtmSTplSo7J-50" value="" style="endArrow=classic;html=1;rounded=0;exitX=0;exitY=0.5;exitDx=0;exitDy=0;entryX=1;entryY=0.5;entryDx=0;entryDy=0;" edge="1" parent="1" source="V83MvPd_cZtmSTplSo7J-48" target="V83MvPd_cZtmSTplSo7J-26">
          <mxGeometry width="50" height="50" relative="1" as="geometry">
            <mxPoint x="350" y="380" as="sourcePoint" />
            <mxPoint x="300" y="380" as="targetPoint" />
          </mxGeometry>
        </mxCell>
        <mxCell id="V83MvPd_cZtmSTplSo7J-51" value="" style="endArrow=classic;html=1;rounded=0;exitX=0;exitY=0.5;exitDx=0;exitDy=0;entryX=1;entryY=0.5;entryDx=0;entryDy=0;" edge="1" parent="1" source="V83MvPd_cZtmSTplSo7J-48" target="V83MvPd_cZtmSTplSo7J-27">
          <mxGeometry width="50" height="50" relative="1" as="geometry">
            <mxPoint x="350" y="380" as="sourcePoint" />
            <mxPoint x="300" y="510" as="targetPoint" />
          </mxGeometry>
        </mxCell>
        <mxCell id="V83MvPd_cZtmSTplSo7J-52" value="" style="endArrow=classic;html=1;rounded=0;exitX=0;exitY=0.5;exitDx=0;exitDy=0;entryX=1;entryY=0.5;entryDx=0;entryDy=0;" edge="1" parent="1" source="V83MvPd_cZtmSTplSo7J-48" target="V83MvPd_cZtmSTplSo7J-28">
          <mxGeometry width="50" height="50" relative="1" as="geometry">
            <mxPoint x="350" y="380" as="sourcePoint" />
            <mxPoint x="400" y="330" as="targetPoint" />
          </mxGeometry>
        </mxCell>
      </root>
    </mxGraphModel>
  </diagram>
</mxfile>
